<svg width="99" height="29" viewBox="0 0 99 29" fill="none" xmlns="http://www.w3.org/2000/svg">
<path fill-rule="evenodd" clip-rule="evenodd" d="M44.9404 29H40.2914V27.0507C38.5343 28.2794 36.3975 29 34.0927 29C28.1017 29 23.245 24.1311 23.245 18.125C23.245 12.1189 28.1017 7.25 34.0927 7.25C40.0837 7.25 44.9404 12.1189 44.9404 18.125V29ZM40.2914 18.125C40.2914 19.2263 39.9775 20.2489 39.4283 21.1928C38.879 22.1368 38.1336 22.9234 37.1921 23.5133C36.2505 24.064 35.1912 24.3393 34.0927 24.3393C32.9942 24.3393 31.9349 24.0246 30.9934 23.474C30.0518 22.9234 29.3064 22.1761 28.7571 21.2321C28.1687 20.2882 27.894 19.2656 27.894 18.125C27.894 17.0237 28.1687 15.9618 28.7179 15.0179C29.2672 14.0739 30.0518 13.3266 30.9934 12.776C31.8957 12.186 32.9158 11.9107 34.0927 11.9107C35.1912 11.9107 36.2113 12.186 37.1528 12.7367C38.0944 13.2873 38.879 14.0739 39.4675 15.0179C40.0168 15.9618 40.2914 16.9844 40.2914 18.125Z" fill="white"/>
<path d="M56.3046 7.25C63.3455 7.25 66.1192 12.5486 66.1192 16.2662V29H60.9986V16.3944C60.9986 13.3605 58.7796 11.9931 56.3046 11.9931C53.8297 11.9931 51.6107 13.3605 51.6107 16.3944V29H46.4901V16.2662C46.4901 12.5486 49.2638 7.25 56.3046 7.25Z" fill="white"/>
<path d="M76.306 24.691C77.6036 24.7319 78.5362 24.6091 79.185 24.3225C79.7932 24.0359 80.1582 23.5856 80.3204 22.9305C80.3204 22.8486 80.3609 22.7258 80.3609 22.5211C80.3609 21.866 79.996 21.3747 79.2661 21.0063C79.0228 20.8834 78.0901 20.5968 76.3871 20.1874L75.0084 19.8599C73.3458 19.4096 72.0077 18.9592 70.9939 18.4679C69.9397 18.0176 69.1287 17.4034 68.561 16.6665C67.9527 15.9295 67.6689 15.0288 67.6689 13.8825C67.6689 12.5314 67.9933 11.2622 68.6826 10.1159C69.3314 8.96953 70.2641 8.19165 71.44 7.78224C72.4132 7.45471 73.7513 7.25 75.495 7.25C77.563 7.25 80.0365 7.49565 82.9156 7.90506L81.4558 11.8764L75.6572 11.3441C73.9135 11.3441 72.9403 11.7945 72.697 12.7771C72.6565 12.9408 72.6565 13.0637 72.6565 13.2274C72.6565 13.7187 73.062 14.1281 73.9135 14.4557C74.1568 14.6194 75.3328 14.947 77.4819 15.5201C79.9149 16.1343 81.6585 16.7074 82.7128 17.2397C84.5376 18.3041 85.4702 19.7371 85.4702 21.6204C85.4702 22.1117 85.3891 22.6849 85.2675 23.3399C84.7809 25.2642 83.7266 26.6971 82.064 27.6797C80.4015 28.6623 78.1712 29.0717 75.4139 28.9898L69.0476 28.3347L70.8723 24.1178L76.306 24.691Z" fill="white"/>
<path d="M99 12.2612C98.5168 12.2211 98.1946 12.181 98.0738 12.181C96.9462 12.181 95.8589 12.5017 94.8924 13.0629C93.926 13.6242 93.1608 14.3859 92.597 15.348C91.993 16.3102 91.7111 17.3525 91.7111 18.5151L91.7916 29H87.08L87.0397 17.7935C87.0397 15.9093 87.523 14.1454 88.4895 12.5418C89.456 10.9382 90.8251 9.61527 92.5568 8.65313C94.2078 7.73107 96.02 7.25 97.953 7.25L99 7.33018V12.2612Z" fill="white"/>
<path fill-rule="evenodd" clip-rule="evenodd" d="M21.6954 0L17.0464 2.33036V9.19925C15.2893 7.97057 13.1524 7.25 10.8477 7.25C4.85667 7.25 0 12.1189 0 18.125C0 24.1311 4.85667 29 10.8477 29C16.8387 29 21.6954 24.1311 21.6954 18.125V0ZM17.0464 18.125C17.0464 17.0237 16.7325 16.0011 16.1833 15.0572C15.634 14.1132 14.8886 13.3266 13.947 12.7367C13.0054 12.186 11.9462 11.9107 10.8477 11.9107C9.74918 11.9107 8.68991 12.2254 7.74834 12.776C6.80677 13.3266 6.06136 14.0739 5.51211 15.0179C4.92363 15.9618 4.64901 16.9844 4.64901 18.125C4.64901 19.2263 4.92363 20.2882 5.47288 21.2321C6.02213 22.1761 6.80677 22.9234 7.74834 23.474C8.65068 24.064 9.67072 24.3393 10.8477 24.3393C11.9462 24.3393 12.9662 24.064 13.9078 23.5133C14.8494 22.9627 15.634 22.1761 16.2225 21.2321C16.7717 20.2882 17.0464 19.2656 17.0464 18.125Z" fill="white"/>
<path d="M3.36342 25.9971C5.31002 27.8577 7.94579 29 10.8477 29C13.7548 29 16.3948 27.8536 18.3424 25.987C17.6114 26.6874 16.7815 27.2865 15.8734 27.7625L13.7142 23.622C12.8269 24.1002 11.8713 24.3393 10.8477 24.3393C9.67667 24.3393 8.661 24.0667 7.76204 23.4829L5.42383 27.543C4.67352 27.1087 3.98273 26.5889 3.36342 25.9971Z" fill="#FF304C"/>
<path d="M14.9801 18.125C14.9801 20.413 13.13 22.2679 10.8477 22.2679C8.56539 22.2679 6.71523 20.413 6.71523 18.125C6.71523 15.837 8.56539 13.9821 10.8477 13.9821C13.13 13.9821 14.9801 15.837 14.9801 18.125Z" fill="#FF304C"/>
</svg>
