<svg width="166" height="29" viewBox="0 0 166 29" fill="none" xmlns="http://www.w3.org/2000/svg">
<path d="M89.2001 20.914H85.2458L85.2165 13.5033C85.2165 12.4488 84.8357 11.5408 84.0741 10.7792C83.3126 10.0176 82.4045 9.63682 81.3501 9.63682C80.276 9.63682 79.3582 10.0176 78.5967 10.7792C77.8351 11.5212 77.4543 12.4293 77.4543 13.5033V20.914H73.5V13.5033C73.5 11.3162 74.2616 9.47084 75.7847 7.96722C77.3079 6.44408 79.163 5.6825 81.3501 5.6825C83.5371 5.6825 85.3922 6.44408 86.9154 7.96722C88.4385 9.47084 89.2001 11.3162 89.2001 13.5033V20.914Z" fill="white"/>
<path d="M106.935 20.914H102.981L102.951 13.5033C102.951 12.4488 102.571 11.5408 101.809 10.7792C101.047 10.0176 100.139 9.63682 99.085 9.63682C98.011 9.63682 97.0932 10.0176 96.3316 10.7792C95.57 11.5212 95.1893 12.4293 95.1893 13.5033V20.914H91.2349V13.5033C91.2349 11.3162 91.9965 9.47084 93.5196 7.96722C95.0428 6.44408 96.8979 5.6825 99.085 5.6825C101.272 5.6825 103.127 6.44408 104.65 7.96722C106.173 9.47084 106.935 11.3162 106.935 13.5033V20.914Z" fill="white"/>
<path d="M127.833 20.914H123.645L122.795 18.6292C121.233 20.4648 119.241 21.3826 116.82 21.3826C114.633 21.3826 112.778 20.621 111.255 19.0979C109.751 17.5748 108.999 15.7294 108.999 13.5618C108.999 11.902 109.468 10.4082 110.405 9.08029C111.342 7.73289 112.592 6.77604 114.154 6.20974C115.072 5.87778 115.97 5.71179 116.849 5.71179C118.509 5.71179 120.003 6.19022 121.331 7.14707C122.678 8.08439 123.635 9.33415 124.201 10.8963L127.833 20.914ZM120.716 13.5618C120.716 12.1949 120.159 11.1307 119.046 10.3691C118.402 9.91997 117.66 9.69541 116.82 9.69541C115.453 9.69541 114.399 10.2422 113.656 11.3357C113.188 12.0192 112.953 12.7612 112.953 13.5618C112.953 14.9092 113.51 15.9637 114.623 16.7253C115.307 17.194 116.039 17.4283 116.82 17.4283C117.894 17.4283 118.812 17.0573 119.573 16.3152C120.335 15.5537 120.716 14.6359 120.716 13.5618Z" fill="white"/>
<path d="M134.186 2.3433C134.186 3.00724 133.961 3.57353 133.512 4.04219C133.063 4.49133 132.506 4.71589 131.842 4.71589C131.179 4.71589 130.612 4.49133 130.144 4.04219C129.694 3.57353 129.47 3.00724 129.47 2.3433C129.47 1.67936 129.694 1.12283 130.144 0.673698C130.612 0.224566 131.179 0 131.842 0C132.487 0 133.034 0.23433 133.483 0.702989C133.951 1.15212 134.186 1.69889 134.186 2.3433ZM133.834 20.914H129.88V5.71179H133.834V20.914Z" fill="white"/>
<path d="M147.751 16.4324C147.751 17.3697 147.438 18.2192 146.813 18.9807C145.563 20.5039 143.786 21.2362 141.482 21.1776C140.564 21.158 139.559 20.953 138.465 20.5625C137.391 20.1719 136.512 19.6837 135.829 19.0979L138.026 16.2566C139.08 17.2525 140.203 17.7505 141.394 17.7505H141.482C141.97 17.7505 142.41 17.6626 142.8 17.4869C143.308 17.2525 143.562 16.9206 143.562 16.491V16.3738C143.503 15.9247 143.201 15.6025 142.654 15.4072C142.439 15.3681 141.98 15.2803 141.277 15.1436C140.398 14.9678 139.656 14.753 139.051 14.4992C137.274 13.7376 136.386 12.4 136.386 10.4863C136.386 8.65068 137.294 7.27399 139.11 6.3562C139.91 5.94612 140.779 5.73132 141.717 5.71179C142.693 5.69227 143.708 5.85825 144.763 6.20974C145.974 6.61982 146.833 7.15683 147.34 7.82076L144.704 10.1934C144.021 9.50989 143.279 9.16816 142.478 9.16816C141.228 9.16816 140.603 9.57824 140.603 10.3984V10.457C140.603 10.8475 141.111 11.1795 142.127 11.4529C142.205 11.4724 142.849 11.5993 144.06 11.8337C146.52 12.3023 147.751 13.8059 147.751 16.3445V16.4324Z" fill="white"/>
<path d="M16.1708 13.6118C16.1708 15.7989 15.4092 17.654 13.8861 19.1771C12.3825 20.6807 10.5371 21.4325 8.35005 21.4325C6.94407 21.4325 5.64549 21.0908 4.45432 20.4073V28.9857H0.5V13.6118C0.5 11.4052 1.25181 9.55005 2.75543 8.04644C4.27857 6.54282 6.14345 5.79101 8.35005 5.79101C10.5371 5.79101 12.3825 6.55258 13.8861 8.07573C15.4092 9.57935 16.1708 11.4247 16.1708 13.6118ZM12.2165 13.6118C12.2165 12.5378 11.8357 11.6297 11.0741 10.8877C10.3321 10.1261 9.42407 9.74533 8.35005 9.74533C7.27604 9.74533 6.35825 10.1261 5.59668 10.8877C4.8351 11.6297 4.45432 12.5378 4.45432 13.6118C4.45432 14.6858 4.8351 15.6036 5.59668 16.3652C6.35825 17.1072 7.27604 17.4782 8.35005 17.4782C9.42407 17.4782 10.3321 17.1072 11.0741 16.3652C11.8357 15.6036 12.2165 14.6858 12.2165 13.6118Z" fill="white"/>
<path d="M37.0413 20.9932H32.8526L32.0032 18.7084C30.441 20.544 28.4492 21.4618 26.0278 21.4618C23.8407 21.4618 21.9856 20.7003 20.4624 19.1771C18.9588 17.654 18.207 15.8086 18.207 13.6411C18.207 11.9812 18.6757 10.4874 19.613 9.1595C20.5503 7.81211 21.8001 6.85526 23.3623 6.28896C24.2801 5.95699 25.1783 5.79101 26.0571 5.79101C27.7169 5.79101 29.2108 6.26943 30.5386 7.22628C31.886 8.1636 32.8429 9.41336 33.4092 10.9756L37.0413 20.9932ZM29.9235 13.6411C29.9235 12.2741 29.367 11.2099 28.2539 10.4483C27.6095 9.99919 26.8675 9.77462 26.0278 9.77462C24.6609 9.77462 23.6064 10.3214 22.8643 11.4149C22.3957 12.0984 22.1613 12.8404 22.1613 13.6411C22.1613 14.9885 22.7179 16.0429 23.8309 16.8045C24.5144 17.2732 25.2467 17.5075 26.0278 17.5075C27.1018 17.5075 28.0196 17.1365 28.7812 16.3944C29.5427 15.6329 29.9235 14.7151 29.9235 13.6411Z" fill="white"/>
<path d="M53.4244 21.1396C53.4244 23.3462 52.6628 25.2013 51.1397 26.705C49.6361 28.2086 47.7809 28.9604 45.5743 28.9604V25.0061C46.6484 25.0061 47.5661 24.6253 48.3277 23.8637C49.0893 23.1217 49.4701 22.2136 49.4701 21.1396V20.4366C48.2594 21.1201 46.9608 21.4618 45.5743 21.4618C43.3873 21.4618 41.5321 20.7003 40.009 19.1771C38.4859 17.654 37.7243 15.7989 37.7243 13.6118V5.76172H41.6786L41.7079 13.6118C41.7079 14.6858 42.0789 15.6036 42.821 16.3652C43.5825 17.1267 44.5003 17.5075 45.5743 17.5075C46.6484 17.5075 47.5661 17.1267 48.3277 16.3652C49.0893 15.6036 49.4701 14.6858 49.4701 13.6118V5.76172H53.4244V21.1396Z" fill="white"/>
<path fill-rule="evenodd" clip-rule="evenodd" d="M71.0873 15.0716C70.126 19.2052 65.9923 21.7527 61.8587 20.7914C60.2007 20.4058 58.7902 19.5099 57.7574 18.3084H53.4491C53.1795 18.3084 52.9609 18.0898 52.9609 17.8202C52.9609 17.5506 53.1795 17.332 53.4491 17.332H56.1707C56.4208 17.3108 56.6171 17.1011 56.6171 16.8456C56.6171 16.576 56.3985 16.3574 56.1289 16.3574H56.5315L56.5314 16.3572H55.3983C55.1287 16.3572 54.9102 16.1387 54.9102 15.869C54.9102 15.5994 55.1287 15.3809 55.3983 15.3809H56.1811L56.1808 15.3797H55.4023C55.672 15.3797 55.8905 15.1611 55.8905 14.8915C55.8905 14.6313 55.6869 14.4186 55.4303 14.4041H49.7851C49.5154 14.4041 49.2969 14.1855 49.2969 13.9159C49.2969 13.6463 49.5154 13.4277 49.7851 13.4277H55.8917L55.8917 13.4275H55.4023C55.672 13.4275 55.8905 13.209 55.8905 12.9394C55.8905 12.6697 55.672 12.4512 55.4023 12.4512H55.9381L55.9381 12.451H53.4491C53.1795 12.451 52.9609 12.2324 52.9609 11.9628C52.9609 11.6932 53.1795 11.4746 53.4491 11.4746H56.1118L56.1121 11.4735H54.9101C55.1797 11.4735 55.3983 11.2549 55.3983 10.9853C55.3983 10.7295 55.2015 10.5197 54.9511 10.4988H54.4218C54.1522 10.4988 53.9336 10.2803 53.9336 10.0106C53.9336 9.74103 54.1522 9.52246 54.4218 9.52246H56.8827L56.8828 9.52227H56.3789C56.6485 9.52227 56.8671 9.3037 56.8671 9.03409C56.8671 8.76447 56.6485 8.5459 56.3789 8.5459H57.5367L57.5376 8.54473H54.1835C53.9139 8.54473 53.6953 8.32617 53.6953 8.05655C53.6953 7.78693 53.9139 7.56836 54.1835 7.56836H58.4549C60.2622 5.95184 62.8058 5.206 65.3675 5.79488C69.4531 6.7562 72.0486 10.8898 71.0873 15.0716ZM51.9844 15.869C51.9844 15.5994 52.2029 15.3809 52.4726 15.3809H53.9371C54.2067 15.3809 54.4253 15.5994 54.4253 15.869C54.4253 16.1387 54.2067 16.3572 53.9371 16.3572H52.4726C52.2029 16.3572 51.9844 16.1387 51.9844 15.869ZM48.5663 11.4746C48.2967 11.4746 48.0781 11.6932 48.0781 11.9628C48.0781 12.2324 48.2967 12.451 48.5663 12.451H51.7395C52.0091 12.451 52.2277 12.2324 52.2277 11.9628C52.2277 11.6932 52.0091 11.4746 51.7395 11.4746H48.5663Z" fill="url(#paint0_linear_411_19739)"/>
<path d="M71.1017 15.0704C69.6598 21.3189 61.6328 23.0493 57.6914 18.1947C62.1135 21.7996 68.7465 19.5405 70.0443 14.013C70.6211 11.5616 69.9482 9.15832 68.5062 7.37988C70.6692 9.11025 71.7747 12.0903 71.1017 15.0704Z" fill="url(#paint1_linear_411_19739)"/>
<g opacity="0.4">
<path d="M59.375 8.33963C59.5672 8.72416 60.144 7.90704 61.0573 7.42638C61.9705 6.94573 62.8357 7.04186 62.6434 6.60927C62.4512 6.17667 61.5379 6.27281 60.6247 6.75346C59.7114 7.23412 59.1346 7.95511 59.375 8.33963Z" fill="#E3F3FC"/>
</g>
<g opacity="0.4">
<path d="M63.5576 6.80573C63.7965 6.80573 63.9902 6.65509 63.9902 6.46927C63.9902 6.28345 63.7965 6.13281 63.5576 6.13281C63.3187 6.13281 63.125 6.28345 63.125 6.46927C63.125 6.65509 63.3187 6.80573 63.5576 6.80573Z" fill="#E3F3FC"/>
</g>
<path d="M69.1747 13.1987C69.1747 16.2749 66.6753 18.7743 63.5991 18.7743C60.5229 18.7743 58.0234 16.2749 58.0234 13.1987C58.0234 10.1225 60.5229 7.62305 63.5991 7.62305C66.6753 7.67111 69.1747 10.1225 69.1747 13.1987Z" fill="url(#paint2_linear_411_19739)"/>
<path d="M68.6485 13.201C68.6485 15.9888 66.3894 18.2479 63.6016 18.2479C60.8138 18.2479 58.5547 15.9888 58.5547 13.201C58.5547 10.4132 60.8138 8.20215 63.6016 8.20215C66.3894 8.20215 68.6485 10.4132 68.6485 13.201Z" fill="url(#paint3_linear_411_19739)"/>
<path d="M68.5949 13.5374C68.4507 10.8938 66.2877 8.827 63.596 8.827C60.9044 8.827 58.7414 10.8938 58.5491 13.5374C58.4049 10.4612 60.8082 8.20215 63.596 8.20215C66.3839 8.20215 68.7871 10.4612 68.5949 13.5374Z" fill="#3E6AA4"/>
<path d="M68.0232 8.31807C67.8634 8.31807 67.8634 8.56345 68.0232 8.64524C68.6623 9.0542 69.1417 9.38137 69.0618 9.38137C69.0618 9.38137 68.5026 9.13599 67.8634 8.80882C67.7037 8.72703 67.6238 8.89061 67.6238 8.97241C67.9433 10.3629 68.2629 11.6715 68.1031 11.7533C68.0232 11.7533 67.6238 10.5265 67.1444 9.13599C67.0645 8.97241 66.9048 8.97241 66.8249 9.0542C66.4254 9.70853 66.1059 10.1993 66.1059 10.1993C66.026 10.1175 66.3455 9.62674 66.6651 8.97241C66.745 8.80882 66.5852 8.72703 66.5053 8.72703C65.1472 9.0542 63.869 9.29957 63.7891 9.29957C63.7891 9.21778 64.9874 8.80882 66.3455 8.31807C66.5053 8.23628 66.5053 8.0727 66.3455 7.9909C65.7863 7.58194 65.2271 7.25478 65.2271 7.25478C65.307 7.25478 65.7863 7.50015 66.4254 7.82732C66.745 7.82732 66.9048 7.74553 66.9048 7.58194C66.5852 6.19148 66.2656 4.88281 66.3455 4.88281C66.4254 4.88281 66.8249 6.10969 67.3042 7.50015C67.3841 7.66374 67.5439 7.66374 67.6238 7.50015C68.0232 6.84582 68.3428 6.35507 68.3428 6.35507C68.4227 6.35507 68.1031 6.92761 67.7836 7.58194C67.7037 7.74553 67.8634 7.82732 67.9433 7.82732C69.3015 7.50015 70.5797 7.17299 70.6596 7.33657C70.6596 7.41836 69.3813 7.82732 68.0232 8.31807Z" fill="#E3F3FC"/>
<path d="M158.194 21.3657C156.47 21.3657 154.953 21.0285 153.641 20.354C152.349 19.6795 151.346 18.7615 150.634 17.5999C149.922 16.4196 149.566 15.0801 149.566 13.5813C149.566 12.0637 149.913 10.7242 150.606 9.56262C151.318 8.38231 152.283 7.46429 153.501 6.80857C154.719 6.13411 156.096 5.79688 157.632 5.79688C159.112 5.79688 160.442 6.11537 161.622 6.75236C162.821 7.37062 163.768 8.2699 164.461 9.45021C165.154 10.6118 165.501 12.0075 165.501 13.6375C165.501 13.8061 165.491 14.0028 165.472 14.2276C165.454 14.4337 165.435 14.6304 165.416 14.8178H153.135V12.2605H163.112L161.426 13.0192C161.426 12.2324 161.266 11.5485 160.948 10.9677C160.629 10.387 160.189 9.93732 159.627 9.61882C159.065 9.28159 158.409 9.11297 157.66 9.11297C156.911 9.11297 156.245 9.28159 155.665 9.61882C155.103 9.93732 154.662 10.3963 154.344 10.9958C154.025 11.5766 153.866 12.2698 153.866 13.0754V13.7499C153.866 14.5742 154.044 15.3049 154.4 15.9419C154.775 16.5602 155.29 17.0379 155.946 17.3751C156.62 17.6936 157.407 17.8529 158.306 17.8529C159.112 17.8529 159.814 17.7311 160.414 17.4875C161.032 17.244 161.594 16.8786 162.1 16.3915L164.433 18.9208C163.739 19.7076 162.868 20.3165 161.819 20.7474C160.77 21.1596 159.562 21.3657 158.194 21.3657Z" fill="white"/>
<defs>
<linearGradient id="paint0_linear_411_19739" x1="63.994" y1="4.68413" x2="59.5023" y2="23.1831" gradientUnits="userSpaceOnUse">
<stop stop-color="#1BE4AE"/>
<stop offset="1" stop-color="#CA32F7"/>
</linearGradient>
<linearGradient id="paint1_linear_411_19739" x1="71.313" y1="6.8245" x2="60.4768" y2="23.1431" gradientUnits="userSpaceOnUse">
<stop stop-color="#0AC08F"/>
<stop offset="1" stop-color="#B321DE"/>
</linearGradient>
<linearGradient id="paint2_linear_411_19739" x1="67.4109" y1="8.11228" x2="58.8448" y2="20.7902" gradientUnits="userSpaceOnUse">
<stop offset="0.049395" stop-color="#1BE4AE"/>
<stop offset="1" stop-color="#9325B4"/>
</linearGradient>
<linearGradient id="paint3_linear_411_19739" x1="69.6407" y1="2.07543" x2="58.5475" y2="25.8894" gradientUnits="userSpaceOnUse">
<stop stop-color="#1BE4AE"/>
<stop offset="1" stop-color="#CA32F7"/>
</linearGradient>
</defs>
</svg>
