<svg width="40" height="28" viewBox="0 0 40 28" fill="none" xmlns="http://www.w3.org/2000/svg">
<path fill-rule="evenodd" clip-rule="evenodd" d="M39.6381 17.5523C37.982 24.6733 30.861 29.0618 23.74 27.4058C20.8837 26.7415 18.4538 25.1981 16.6745 23.128H9.25297C8.7885 23.128 8.41197 22.7515 8.41197 22.2871C8.41197 21.8226 8.7885 21.4461 9.25297 21.4461H13.9471C14.3752 21.4069 14.7105 21.0469 14.7105 20.6086C14.7105 20.1441 14.334 19.7676 13.8695 19.7676H14.5629L14.5627 19.7671H12.6099C12.1454 19.7671 11.7689 19.3905 11.7689 18.9261C11.7689 18.4616 12.1454 18.0851 12.6099 18.0851H13.9593L13.9588 18.0832H12.6173C13.0817 18.0832 13.4583 17.7066 13.4583 17.2422C13.4583 16.7947 13.1088 16.4289 12.6679 16.4027H2.94026C2.47579 16.4027 2.09927 16.0261 2.09927 15.5617C2.09927 15.0972 2.47579 14.7207 2.94026 14.7207H13.4608L13.4607 14.7201H12.6173C13.0817 14.7201 13.4583 14.3436 13.4583 13.8791C13.4583 13.4147 13.0817 13.0382 12.6173 13.0382H13.5406L13.5407 13.0376H9.25297C8.7885 13.0376 8.41197 12.6611 8.41197 12.1966C8.41197 11.7321 8.7885 11.3556 9.25297 11.3556H13.84L13.8404 11.3537H11.7689C12.2334 11.3537 12.6099 10.9772 12.6099 10.5127C12.6099 10.0718 12.2705 9.71006 11.8387 9.67459H10.928C10.4636 9.67459 10.087 9.29806 10.087 8.83359C10.087 8.36912 10.4636 7.9926 10.928 7.9926H14.3148C14.772 7.98425 15.1401 7.61098 15.1401 7.15174C15.1401 6.68727 14.7636 6.31074 14.2991 6.31074H16.2944L16.2964 6.30818H10.5174C10.0529 6.30818 9.67641 5.93165 9.67641 5.46718C9.67641 5.00271 10.0529 4.62618 10.5174 4.62618H17.8766C20.9902 1.84166 25.3718 0.556945 29.7846 1.57137C36.8228 3.22742 41.2941 10.3484 39.6381 17.5523ZM6.72876 18.9261C6.72876 18.4616 7.10529 18.0851 7.56976 18.0851H10.0928C10.5572 18.0851 10.9338 18.4616 10.9338 18.9261C10.9338 19.3905 10.5572 19.7671 10.0928 19.7671H7.56976C7.10529 19.7671 6.72876 19.3905 6.72876 18.9261ZM0.840998 11.3556C0.376527 11.3556 0 11.7321 0 12.1966C0 12.6611 0.376527 13.0376 0.840997 13.0376H6.30748C6.77195 13.0376 7.14848 12.6611 7.14848 12.1966C7.14848 11.7321 6.77195 11.3556 6.30748 11.3556H0.840998Z" fill="url(#paint0_linear_425_17278)"/>
<path d="M39.6566 17.5511C37.1725 28.3155 23.3445 31.2964 16.5547 22.9333C24.1725 29.1435 35.5993 25.2518 37.8349 15.7295C38.8286 11.5066 37.6693 7.36643 35.1853 4.30273C38.9114 7.28363 40.8158 12.4174 39.6566 17.5511Z" fill="url(#paint1_linear_425_17278)"/>
<g opacity="0.4">
<path d="M19.4613 5.95387C19.7925 6.61629 20.7862 5.20865 22.3594 4.38062C23.9327 3.5526 25.4231 3.7182 25.0919 2.97298C24.7607 2.22776 23.1875 2.39336 21.6142 3.22139C20.041 4.04941 19.0473 5.29145 19.4613 5.95387Z" fill="#E3F3FC"/>
</g>
<g opacity="0.4">
<path d="M26.6671 3.31256C27.0787 3.31256 27.4123 3.05305 27.4123 2.73294C27.4123 2.41282 27.0787 2.15332 26.6671 2.15332C26.2555 2.15332 25.9219 2.41282 25.9219 2.73294C25.9219 3.05305 26.2555 3.31256 26.6671 3.31256Z" fill="#E3F3FC"/>
</g>
<path d="M36.343 14.3248C36.343 19.6242 32.0373 23.9299 26.7379 23.9299C21.4385 23.9299 17.1328 19.6242 17.1328 14.3248C17.1328 9.02546 21.4385 4.71973 26.7379 4.71973C32.0373 4.80253 36.343 9.02546 36.343 14.3248Z" fill="url(#paint2_linear_425_17278)"/>
<path d="M35.4354 14.3292C35.4354 19.1318 31.5437 23.0235 26.7411 23.0235C21.9386 23.0235 18.0469 19.1318 18.0469 14.3292C18.0469 9.52669 21.9386 5.71777 26.7411 5.71777C31.5437 5.71777 35.4354 9.52669 35.4354 14.3292Z" fill="url(#paint3_linear_425_17278)"/>
<path d="M35.3398 14.9089C35.0914 10.3547 31.3653 6.79421 26.7283 6.79421C22.0914 6.79421 18.3653 10.3547 18.0341 14.9089C17.7857 9.60949 21.9258 5.71777 26.7283 5.71777C31.5309 5.71777 35.671 9.60949 35.3398 14.9089Z" fill="#3E6AA4"/>
<path d="M34.3567 5.9179C34.0814 5.9179 34.0814 6.34061 34.3567 6.48151C35.4577 7.18602 36.2834 7.74963 36.1458 7.74963C36.1458 7.74963 35.1824 7.32692 34.0814 6.76331C33.8062 6.62241 33.6685 6.90422 33.6685 7.04512C34.219 9.44046 34.7695 11.6949 34.4943 11.8358C34.3567 11.8358 33.6685 9.72226 32.8428 7.32692C32.7051 7.04512 32.4299 7.04512 32.2923 7.18602C31.6041 8.31324 31.0536 9.15866 31.0536 9.15866C30.916 9.01775 31.4665 8.17234 32.017 7.04512C32.1546 6.76331 31.8794 6.62241 31.7418 6.62241C29.4021 7.18602 27.2001 7.60873 27.0625 7.60873C27.0625 7.46783 29.1269 6.76331 31.4665 5.9179C31.7418 5.777 31.7418 5.49519 31.4665 5.35429C30.5031 4.64978 29.5398 4.08617 29.5398 4.08617C29.6774 4.08617 30.5031 4.50888 31.6041 5.07249C32.1546 5.07249 32.4299 4.93158 32.4299 4.64978C31.8794 2.25444 31.3289 0 31.4665 0C31.6041 0 32.2923 2.11354 33.118 4.50888C33.2557 4.79068 33.5309 4.79068 33.6685 4.50888C34.3567 3.38166 34.9072 2.53624 34.9072 2.53624C35.0448 2.53624 34.4943 3.52256 33.9438 4.64978C33.8062 4.93158 34.0814 5.07249 34.219 5.07249C36.5587 4.50888 38.7607 3.94527 38.8983 4.22707C38.8983 4.36797 36.6963 5.07249 34.3567 5.9179Z" fill="#E3F3FC"/>
<defs>
<linearGradient id="paint0_linear_425_17278" x1="27.4185" y1="-0.342114" x2="19.6807" y2="31.526" gradientUnits="userSpaceOnUse">
<stop stop-color="#1BE4AE"/>
<stop offset="1" stop-color="#CA32F7"/>
</linearGradient>
<linearGradient id="paint1_linear_425_17278" x1="40.0205" y1="3.34599" x2="21.353" y2="31.4579" gradientUnits="userSpaceOnUse">
<stop stop-color="#0AC08F"/>
<stop offset="1" stop-color="#B321DE"/>
</linearGradient>
<linearGradient id="paint2_linear_425_17278" x1="33.3046" y1="5.56252" x2="18.5477" y2="27.4027" gradientUnits="userSpaceOnUse">
<stop offset="0.049395" stop-color="#1BE4AE"/>
<stop offset="1" stop-color="#9325B4"/>
</linearGradient>
<linearGradient id="paint3_linear_425_17278" x1="37.1447" y1="-4.83668" x2="18.0345" y2="36.1875" gradientUnits="userSpaceOnUse">
<stop stop-color="#1BE4AE"/>
<stop offset="1" stop-color="#CA32F7"/>
</linearGradient>
</defs>
</svg>
