<svg xmlns="http://www.w3.org/2000/svg" width="228" height="227" fill="none" xmlns:v="https://vecta.io/nano"><rect x=".5" width="227" height="227" rx="16" fill="#19203a"/><path fill-rule="evenodd" d="M167.488 107.897c-5.745 24.701-30.445 39.923-55.145 34.179-9.903-2.303-18.329-7.654-24.5-14.829H62.105a2.92 2.92 0 0 1-2.917-2.917 2.92 2.92 0 0 1 2.917-2.917H83.57l-.001-.001h-5.438a2.92 2.92 0 0 0 2.917-2.917 2.92 2.92 0 0 0-2.917-2.918h2.378v-.001h-6.757a2.92 2.92 0 0 1-2.917-2.917 2.92 2.92 0 0 1 2.917-2.917h4.665v-.001h-4.634a2.92 2.92 0 0 0 2.917-2.917 2.92 2.92 0 0 0-2.917-2.917h3.382v-.001h-36.95a2.92 2.92 0 0 1-2.917-2.917 2.92 2.92 0 0 1 2.917-2.917h36.474v-.001h-2.906a2.92 2.92 0 0 0 2.917-2.917 2.92 2.92 0 0 0-2.917-2.917h3.183v-.001h-14.86a2.92 2.92 0 0 1-2.917-2.917 2.92 2.92 0 0 1 2.917-2.917h15.899v-.001h-7.17a2.92 2.92 0 0 0 2.917-2.917 2.92 2.92 0 0 0-2.917-2.917h9.013v-.001H67.904a2.92 2.92 0 0 1-2.917-2.917 2.92 2.92 0 0 1 2.917-2.917h11.933a2.92 2.92 0 0 0 2.661-2.906 2.92 2.92 0 0 0-2.917-2.917h6.933l.01-.013h-20.07a2.92 2.92 0 0 1-2.917-2.917 2.92 2.92 0 0 1 2.917-2.917h25.552c10.8-9.658 25.998-14.114 41.303-10.595 24.413 5.744 39.923 30.444 34.179 55.432zm-114.147 4.762a2.92 2.92 0 0 1 2.917-2.917h8.751a2.92 2.92 0 0 1 2.917 2.917 2.92 2.92 0 0 1-2.917 2.917h-8.751a2.92 2.92 0 0 1-2.917-2.917zM32.917 86.402A2.92 2.92 0 0 0 30 89.319a2.92 2.92 0 0 0 2.917 2.917h18.961a2.92 2.92 0 0 0 2.917-2.917 2.92 2.92 0 0 0-2.917-2.917H32.917z" fill="url(#A)"/><path d="M167.585 107.889c-8.616 37.338-56.58 47.678-80.132 18.669 26.424 21.541 66.059 8.042 73.814-24.987 3.446-14.648-.575-29.009-9.191-39.635 12.924 10.34 19.53 28.147 15.509 45.954z" fill="url(#B)"/><g opacity=".4"><path d="M97.444 67.68c1.149 2.298 4.595-2.585 10.052-5.457s10.627-2.298 9.478-4.883-6.606-2.011-12.063.862-8.903 7.18-7.467 9.478z" fill="#e3f3fc"/></g><g opacity=".4"><path d="M122.522 58.501c1.428 0 2.585-.9 2.585-2.01s-1.157-2.011-2.585-2.011-2.584.9-2.584 2.011 1.157 2.01 2.584 2.01z" fill="#e3f3fc"/></g><path d="M155.969 96.692c0 18.381-14.935 33.316-33.316 33.316s-33.317-14.935-33.317-33.316 14.935-33.317 33.317-33.317c18.381.287 33.316 14.935 33.316 33.317z" fill="url(#C)"/><path d="M152.846 96.7c0 16.658-13.499 30.157-30.157 30.157S92.531 113.358 92.531 96.7s13.499-29.87 30.158-29.87 30.157 13.212 30.157 29.87z" fill="url(#D)"/><path d="M152.541 98.711c-.862-15.797-13.786-28.147-29.87-28.147s-29.009 12.35-30.158 28.147c-.862-18.382 13.499-31.88 30.158-31.88s31.019 13.499 29.87 31.88z" fill="#3e6aa4"/><path d="M149.152 67.527c-.954 0-.954 1.466 0 1.955l6.206 4.399-7.16-3.421c-.955-.489-1.433.489-1.433.977 1.91 8.309 3.819 16.128 2.865 16.617-.478 0-2.865-7.331-5.729-15.64-.477-.978-1.432-.978-1.909-.489l-4.297 6.842c-.477-.489 1.433-3.421 3.342-7.331.477-.977-.477-1.466-.955-1.466-8.115 1.955-15.753 3.421-16.23 3.421 0-.489 7.16-2.932 15.276-5.865.954-.489.954-1.466 0-1.955-3.342-2.444-6.684-4.399-6.684-4.399.478 0 3.342 1.466 7.161 3.421 1.909 0 2.864-.489 2.864-1.466C140.56 54.82 138.65 47 139.128 47s2.864 7.331 5.728 15.64c.477.977 1.432.977 1.909 0l4.297-6.842c.477 0-1.432 3.421-3.342 7.331-.477.978.478 1.466.955 1.466 8.115-1.955 15.753-3.91 16.231-2.932 0 .489-7.638 2.932-15.754 5.865z" fill="#e3f3fc"/><path d="M34.393 164.184v-1.472h8.176v1.472h-3.616l.376-.392V173h-1.704v-9.208l.384.392h-3.616zM49.544 173v-4.528c0-.624-.149-1.093-.448-1.408s-.696-.48-1.192-.48c-.4 0-.752.112-1.056.336s-.541.544-.712.976c-.165.432-.248.963-.248 1.592h-.584c0-.976.123-1.792.368-2.448s.595-1.149 1.048-1.48c.459-.336 1.003-.504 1.632-.504s1.157.141 1.584.424c.432.283.757.68.976 1.192s.328 1.112.328 1.8V173h-1.696zm-5.36 0v-10.96h1.704V173h-1.704zm14.755 0l-.216-1.824v-3.168c0-.587-.123-1.016-.368-1.288-.24-.272-.632-.408-1.176-.408-.309 0-.584.045-.824.136-.235.091-.419.227-.552.408-.128.176-.192.395-.192.656h-1.872c0-.581.139-1.051.416-1.408.283-.363.68-.627 1.192-.792.517-.171 1.128-.256 1.832-.256.651 0 1.219.107 1.704.32s.864.533 1.136.976.408 1.013.408 1.712V173h-1.488zm-2.56.216c-.656 0-1.203-.115-1.64-.344-.432-.229-.757-.531-.976-.904s-.328-.773-.328-1.2c0-.501.128-.917.384-1.248.261-.331.624-.576 1.088-.736.469-.165 1.013-.248 1.632-.248.421 0 .821.035 1.2.104a10.71 10.71 0 0 1 1.144.272v1.016c-.304-.107-.637-.189-1-.248s-.699-.088-1.008-.088c-.469 0-.859.091-1.168.272-.304.176-.456.477-.456.904 0 .309.123.576.368.8s.635.336 1.168.336c.4 0 .744-.088 1.032-.264s.509-.397.664-.664c.16-.267.24-.533.24-.8h.408c0 .544-.107 1.048-.32 1.512-.208.459-.517.829-.928 1.112-.411.277-.912.416-1.504.416zM68.622 173v-4.528c0-.624-.149-1.093-.448-1.408s-.696-.48-1.192-.48c-.4 0-.752.112-1.056.336s-.541.544-.712.976c-.165.432-.248.963-.248 1.592h-.584c0-.976.123-1.792.368-2.448s.595-1.149 1.048-1.48c.459-.336 1.003-.504 1.632-.504s1.157.141 1.584.424c.432.283.757.68.976 1.192s.328 1.112.328 1.8V173h-1.696zm-5.36 0v-7.728h1.48l.224 1.6V173h-1.704zm9.875 0v-10.96h1.704V173h-1.704zm1.464-4.696l3.496-3.032h2.32l-5.816 4.808v-1.776zm3.92 4.696l-3.512-4.912 1.64-.376 3.96 5.288h-2.088zm6.705-7.728h1.928l2.184 6.24h-.32l1.824-6.24h1.736l-2.952 9.176c-.283.875-.643 1.517-1.08 1.928-.432.411-.965.616-1.6.616a3.96 3.96 0 0 1-1.04-.136 4.95 4.95 0 0 1-1.024-.392v-1.512a3.31 3.31 0 0 0 .84.416 2.58 2.58 0 0 0 .824.136c.272 0 .507-.077.704-.232a1.9 1.9 0 0 0 .504-.632c.144-.261.264-.555.36-.88l.232-.76-3.12-7.728zm12.051 7.944c-.704 0-1.336-.152-1.896-.456s-1.005-.757-1.336-1.36-.496-1.355-.496-2.256c0-.917.165-1.677.496-2.28s.776-1.053 1.336-1.352 1.192-.456 1.896-.456c.693 0 1.32.152 1.88.456s1.003.749 1.328 1.352c.331.603.496 1.363.496 2.28 0 .901-.165 1.653-.496 2.256-.325.603-.768 1.056-1.328 1.36s-1.187.456-1.88.456zm-.056-1.488c.411 0 .768-.099 1.072-.296.309-.203.549-.496.72-.88s.256-.853.256-1.408c0-.848-.171-1.496-.512-1.944-.336-.448-.811-.672-1.424-.672-.411 0-.771.101-1.08.304-.309.197-.549.491-.72.88s-.256.861-.256 1.432c0 .832.171 1.472.512 1.92.347.443.824.664 1.432.664zm11.233-6.48h1.704V173h-1.704v-7.752zm-5.36 0h1.704v4.768c0 .539.133.947.4 1.224.272.277.648.416 1.128.416.4 0 .76-.104 1.08-.312a2.16 2.16 0 0 0 .768-.92c.187-.405.28-.893.28-1.464h.496c0 .923-.123 1.696-.368 2.32s-.587 1.085-1.024 1.4a2.58 2.58 0 0 1-1.528.464c-.555 0-1.056-.101-1.504-.304-.443-.203-.792-.52-1.048-.952-.256-.437-.384-1.008-.384-1.712v-4.928zM117.616 173v-8.744c0-.544.107-.987.32-1.328a1.91 1.91 0 0 1 .848-.76 2.68 2.68 0 0 1 1.152-.248c.246 0 .499.019.76.056s.52.077.776.136l-.336 1.32c-.138-.053-.282-.093-.432-.12a1.95 1.95 0 0 0-.424-.048c-.154 0-.306.029-.456.088-.144.059-.261.163-.352.312s-.136.357-.136.624V173h-1.72zm-1.176-6.592v-1.136h4.368v1.136h-4.368zm9.478 6.808c-.704 0-1.336-.152-1.896-.456s-1.005-.757-1.336-1.36-.496-1.355-.496-2.256c0-.917.165-1.677.496-2.28s.776-1.053 1.336-1.352 1.192-.456 1.896-.456c.693 0 1.32.152 1.88.456s1.003.749 1.328 1.352c.331.603.496 1.363.496 2.28 0 .901-.165 1.653-.496 2.256-.325.603-.768 1.056-1.328 1.36s-1.187.456-1.88.456zm-.056-1.488c.411 0 .768-.099 1.072-.296.309-.203.549-.496.72-.88s.256-.853.256-1.408c0-.848-.171-1.496-.512-1.944-.336-.448-.811-.672-1.424-.672-.411 0-.771.101-1.08.304-.309.197-.549.491-.72.88s-.256.861-.256 1.432c0 .832.171 1.472.512 1.92.347.443.824.664 1.432.664zm6.057 1.272v-7.752h1.704V173h-1.704zm1.264-3.424c0-1.003.106-1.832.32-2.488s.517-1.152.896-1.472a1.93 1.93 0 0 1 1.296-.488c.144 0 .277.011.4.032s.242.043.36.08l-.04 1.696a3.79 3.79 0 0 0-.464-.088c-.166-.027-.312-.04-.44-.04-.427 0-.782.109-1.064.328-.278.213-.486.528-.624.944-.134.411-.2.909-.2 1.496h-.44zm12.613 3.64c-.571 0-1.059-.123-1.464-.368-.405-.251-.715-.624-.928-1.12s-.32-1.115-.32-1.856h.648c0 .384.085.709.256.976s.395.472.672.616c.283.139.581.208.896.208.336 0 .664-.093.984-.28s.584-.467.792-.84c.208-.379.312-.853.312-1.424 0-.528-.091-.981-.272-1.36-.176-.384-.421-.677-.736-.88-.309-.203-.659-.304-1.048-.304-.331 0-.64.077-.928.232-.283.155-.509.379-.68.672-.165.288-.248.643-.248 1.064h-.648c0-.795.125-1.451.376-1.968s.587-.901 1.008-1.152.885-.376 1.392-.376c.608 0 1.179.163 1.712.488s.965.792 1.296 1.4c.336.603.504 1.331.504 2.184 0 .859-.168 1.592-.504 2.2s-.776 1.075-1.32 1.4-1.128.488-1.752.488zm-3.768 3.568v-11.512h1.4l.304 1.88v9.632h-1.704zM156.549 173l-.216-1.824v-3.168c0-.587-.123-1.016-.368-1.288s-.632-.408-1.176-.408c-.31 0-.584.045-.824.136s-.419.227-.552.408-.192.395-.192.656h-1.872c0-.581.138-1.051.416-1.408.282-.363.68-.627 1.192-.792.517-.171 1.128-.256 1.832-.256.65 0 1.218.107 1.704.32s.864.533 1.136.976.408 1.013.408 1.712V173h-1.488zm-2.56.216c-.656 0-1.203-.115-1.64-.344-.432-.229-.758-.531-.976-.904a2.33 2.33 0 0 1-.328-1.2c0-.501.128-.917.384-1.248s.624-.576 1.088-.736 1.013-.248 1.632-.248c.421 0 .821.035 1.2.104a10.73 10.73 0 0 1 1.144.272v1.016a5.85 5.85 0 0 0-1-.248 6.31 6.31 0 0 0-1.008-.088c-.47 0-.859.091-1.168.272-.304.176-.456.477-.456.904 0 .309.122.576.368.8s.634.336 1.168.336c.4 0 .744-.088 1.032-.264s.509-.397.664-.664.24-.533.24-.8h.408a3.58 3.58 0 0 1-.32 1.512 2.66 2.66 0 0 1-.928 1.112c-.411.277-.912.416-1.504.416zm5.675-7.944h1.928l2.184 6.24h-.32l1.824-6.24h1.736l-2.952 9.176c-.283.875-.643 1.517-1.08 1.928s-.966.616-1.6.616c-.358 0-.704-.045-1.04-.136-.336-.085-.678-.216-1.024-.392v-1.512c.288.192.568.331.84.416a2.58 2.58 0 0 0 .824.136c.272 0 .506-.077.704-.232s.365-.365.504-.632c.144-.261.264-.555.36-.88l.232-.76-3.12-7.728zm10.067-1.536c-.336 0-.6-.091-.792-.272-.187-.181-.28-.429-.28-.744 0-.304.093-.547.28-.728.192-.187.456-.28.792-.28.33 0 .592.093.784.28.192.181.288.424.288.728 0 .315-.096.563-.288.744s-.454.272-.784.272zm-.848 9.264v-7.752h1.704V173h-1.704zm10.333 0v-4.528c0-.624-.149-1.093-.448-1.408s-.696-.48-1.192-.48c-.4 0-.752.112-1.056.336s-.541.544-.712.976c-.165.432-.248.963-.248 1.592h-.584c0-.976.123-1.792.368-2.448s.595-1.149 1.048-1.48c.459-.336 1.003-.504 1.632-.504s1.157.141 1.584.424a2.61 2.61 0 0 1 .976 1.192c.219.512.328 1.112.328 1.8V173h-1.696zm-5.36 0v-7.728h1.48l.224 1.6V173h-1.704zm12.779 3.992c-.859 0-1.597-.12-2.216-.36-.613-.235-1.085-.549-1.416-.944-.331-.389-.496-.813-.496-1.272 0-.56.205-.992.616-1.296s.931-.456 1.56-.456l1.184.488c-.539 0-.955.104-1.248.312a1.02 1.02 0 0 0-.44.872c0 .384.216.696.648.936s1.035.36 1.808.36c.571 0 1.064-.085 1.48-.256.421-.165.747-.381.976-.648.235-.267.352-.552.352-.856a.68.68 0 0 0-.216-.512c-.139-.139-.355-.208-.648-.208h-2.712c-.523 0-.992-.083-1.408-.248s-.736-.387-.976-.664-.36-.584-.36-.92c0-.325.091-.603.272-.832a1.7 1.7 0 0 1 .728-.536c.309-.128.651-.192 1.024-.192l.408.576c-.155 0-.307.032-.456.096a.89.89 0 0 0-.368.288c-.091.123-.136.277-.136.464 0 .224.093.408.28.552s.517.208.992.208h2.712c.795 0 1.419.152 1.872.456s.68.76.68 1.368c0 .539-.181 1.053-.544 1.544s-.88.899-1.552 1.208c-.672.315-1.472.472-2.4.472zm.136-6.344c-.608 0-1.16-.115-1.656-.344-.496-.235-.893-.56-1.192-.976-.293-.421-.44-.912-.44-1.472s.147-1.059.44-1.48c.299-.421.696-.747 1.192-.976s1.048-.344 1.656-.344c.592 0 1.133.115 1.624.344s.893.555 1.192.976c.304.421.456.915.456 1.48s-.152 1.051-.456 1.472c-.299.416-.696.741-1.192.976-.491.229-1.032.344-1.624.344zm.008-1.192c.517 0 .909-.152 1.176-.456s.408-.691.408-1.144c0-.48-.136-.867-.408-1.16s-.661-.44-1.184-.44c-.507 0-.901.147-1.184.44-.277.293-.416.68-.416 1.16 0 .453.139.835.416 1.144.283.304.68.456 1.192.456zm2.672-3.16l-.784-.424c0-.459.101-.861.304-1.208s.48-.616.832-.808.747-.288 1.184-.288l-.096 1.648c-.464 0-.821.088-1.072.264-.245.176-.368.448-.368.816zm2.395 5.704a1.13 1.13 0 0 1 .336-.832c.229-.229.517-.344.864-.344a1.21 1.21 0 0 1 .88.344 1.09 1.09 0 0 1 .36.832 1.06 1.06 0 0 1-.36.816 1.24 1.24 0 0 1-.88.328c-.347 0-.635-.109-.864-.328a1.11 1.11 0 0 1-.336-.816z" fill="#319795"/><defs><linearGradient id="A" x1="125.103" y1="45.828" x2="98.263" y2="156.367" gradientUnits="userSpaceOnUse"><stop stop-color="#1be4ae"/><stop offset="1" stop-color="#ca32f7"/></linearGradient><linearGradient id="B" x1="168.847" y1="58.617" x2="104.097" y2="156.127" gradientUnits="userSpaceOnUse"><stop stop-color="#0ac08f"/><stop offset="1" stop-color="#b321de"/></linearGradient><linearGradient id="C" x1="145.43" y1="66.298" x2="94.244" y2="142.054" gradientUnits="userSpaceOnUse"><stop offset=".049" stop-color="#1be4ae"/><stop offset="1" stop-color="#9325b4"/></linearGradient><linearGradient id="D" x1="158.775" y1="30.221" x2="92.488" y2="172.518" gradientUnits="userSpaceOnUse"><stop stop-color="#1be4ae"/><stop offset="1" stop-color="#ca32f7"/></linearGradient></defs></svg>